<svg xmlns="http://www.w3.org/2000/svg" xmlns:xlink="http://www.w3.org/1999/xlink" width="182.045" height="42.643" viewBox="0 0 182.045 42.643">
  <defs>
    <clipPath id="clip-path">
      <rect width="182.045" height="42.643" fill="none"/>
    </clipPath>
  </defs>
  <g id="Cuadrícula_de_repetición_1" data-name="Cuadrícula de repetición 1" clip-path="url(#clip-path)">
    <g id="Grupo_3" data-name="Grupo 3" transform="translate(-94.939 -71.04)">
      <g id="Grupo_1" data-name="Grupo 1" transform="translate(94.94 71.04)">
        <path id="Trazado_1" data-name="Trazado 1" d="M95.144,74.42l7.411-.1a8.366,8.366,0,0,1,5.738,1.843,7.369,7.369,0,0,1,.862,9.2,6.162,6.162,0,0,1-3.189,2.292,4.361,4.361,0,0,1,2.448,2.929l1.517,4.033a5.382,5.382,0,0,0,1.551,2.481A2.766,2.766,0,0,1,109,98.234a1.942,1.942,0,0,1-1.465-.517,5.013,5.013,0,0,1-.947-1.723l-1.725-4.653a5.683,5.683,0,0,0-1.258-2.1,3.061,3.061,0,0,0-2.223-.724H98.558v9.477a10.042,10.042,0,0,1-1.827.139,9.428,9.428,0,0,1-1.791-.139V74.661Zm3.414,2.757v8.409q2.69-.069,3.824-.069a3.972,3.972,0,0,0,3.257-1.171,4.565,4.565,0,0,0,.949-2.964q0-4.17-4.206-4.17Q99.729,77.212,98.558,77.177Z" transform="translate(-94.94 -72.628)"/>
        <path id="Trazado_2" data-name="Trazado 2" d="M144.36,96.45H134.229a6.722,6.722,0,0,0,1.015,3.654,3.539,3.539,0,0,0,3.086,1.275,8.843,8.843,0,0,0,2.222-.31,11.178,11.178,0,0,0,2.464-1,3.984,3.984,0,0,1,1.138,2.275,11.009,11.009,0,0,1-6.481,1.93,7.2,7.2,0,0,1-3.308-.69,5.956,5.956,0,0,1-2.189-1.894,8.084,8.084,0,0,1-1.222-2.879,16.333,16.333,0,0,1-.379-3.6,12.426,12.426,0,0,1,.483-3.533,8.526,8.526,0,0,1,1.378-2.808,6.4,6.4,0,0,1,2.222-1.844,6.493,6.493,0,0,1,2.982-.673,7.457,7.457,0,0,1,2.946.551,6.249,6.249,0,0,1,2.188,1.534,6.56,6.56,0,0,1,1.361,2.344,9.029,9.029,0,0,1,.467,2.947c0,.46-.017.912-.053,1.361A10.914,10.914,0,0,1,144.36,96.45Zm-6.616-7.444q-3.274,0-3.515,4.86h6.961v-.448a5.507,5.507,0,0,0-.844-3.188A2.944,2.944,0,0,0,137.744,89.005Z" transform="translate(-112.208 -78.46)"/>
        <path id="Trazado_3" data-name="Trazado 3" d="M163.139,102.55a3.748,3.748,0,0,1,.377-1.327,3.683,3.683,0,0,1,.791-1.155,9.955,9.955,0,0,0,4.462,1.516,4.576,4.576,0,0,0,2.593-.587,1.8,1.8,0,0,0,.84-1.55q0-1.516-2.16-2.344l-1.924-.723q-4.36-1.654-4.359-4.928a4.524,4.524,0,0,1,1.706-3.739,6.94,6.94,0,0,1,4.465-1.362,13.425,13.425,0,0,1,5.549,1.241,4.065,4.065,0,0,1-.293,1.448,2.873,2.873,0,0,1-.776,1.171,10.934,10.934,0,0,0-4.583-1.137,2.763,2.763,0,0,0-1.809.551A1.711,1.711,0,0,0,167.342,91a1.626,1.626,0,0,0,.5,1.275,5.626,5.626,0,0,0,1.638.9l2.069.792q4.374,1.689,4.376,5.17a4.457,4.457,0,0,1-1.825,3.756,8.059,8.059,0,0,1-4.963,1.379A11.455,11.455,0,0,1,163.139,102.55Z" transform="translate(-127.988 -78.46)"/>
        <path id="Trazado_4" data-name="Trazado 4" d="M202.031,82.23a4.755,4.755,0,0,1,.174,1.344,4.4,4.4,0,0,1-.174,1.31l-4.238-.07V95.089c0,1.008.468,1.512,1.411,1.512h2.379a4.557,4.557,0,0,1,.275,1.552,4.8,4.8,0,0,1-.067,1.028,31.641,31.641,0,0,1-3.86.246q-3.618,0-3.618-3.551V84.849l-2.551.035a5.6,5.6,0,0,1-.138-1.293,6.539,6.539,0,0,1,.138-1.362l2.551.069V79.266a2.858,2.858,0,0,1,.413-1.757,1.807,1.807,0,0,1,1.483-.517h1.343l.243.241v5.1Z" transform="translate(-141.791 -73.924)"/>
        <path id="Trazado_5" data-name="Trazado 5" d="M228.538,102.378a6.758,6.758,0,0,1-5,1.895,7.487,7.487,0,0,1-3.172-.638,6.35,6.35,0,0,1-2.324-1.826,8.4,8.4,0,0,1-1.447-2.827,13.645,13.645,0,0,1,0-7.323,8.388,8.388,0,0,1,1.447-2.844,6.351,6.351,0,0,1,2.324-1.826,8.207,8.207,0,0,1,6.343,0,6.375,6.375,0,0,1,2.327,1.826,8.443,8.443,0,0,1,1.447,2.844,12.623,12.623,0,0,1,.5,3.653Q230.985,99.931,228.538,102.378Zm-4.98-13.3q-3.74,0-3.74,6.238t3.74,6.237q3.775,0,3.773-6.237T223.558,89.075Z" transform="translate(-153.65 -78.46)"/>
        <path id="Trazado_6" data-name="Trazado 6" d="M250.049,97.827l1.827-23.435a20.223,20.223,0,0,1,3.585-.276,20.845,20.845,0,0,1,3.619.276l2.033,8.444q1.205,5.72,1.274,6.238h.242q.136-.86,1.276-6.238l2.068-8.444a20.207,20.207,0,0,1,3.584-.276,20.806,20.806,0,0,1,3.618.276L275,97.827a10.782,10.782,0,0,1-2.638.276,15.716,15.716,0,0,1-2.567-.172l-.551-9.582q-.241-5.72-.276-7.961h-.205l-3.414,14.027a19.607,19.607,0,0,1-5.686,0l-3.378-14.027h-.242q0,3.068-.277,7.961l-.515,9.582a15.719,15.719,0,0,1-2.567.172A10.784,10.784,0,0,1,250.049,97.827Z" transform="translate(-170.103 -72.53)" fill="#f70000"/>
        <path id="Trazado_7" data-name="Trazado 7" d="M318.171,101.214a5.864,5.864,0,0,1-.655,1.55,3.908,3.908,0,0,1-1,1.207,4.541,4.541,0,0,1-3.721-1.826,7.05,7.05,0,0,1-4.859,2.066,5.884,5.884,0,0,1-2.343-.429,5.06,5.06,0,0,1-1.689-1.155,4.745,4.745,0,0,1-1.035-1.671,5.764,5.764,0,0,1-.343-1.982,5.966,5.966,0,0,1,.534-2.6,5.208,5.208,0,0,1,1.466-1.862,6.489,6.489,0,0,1,2.171-1.119,9.021,9.021,0,0,1,2.654-.379c.526,0,.993.006,1.394.017s.754.029,1.051.052v-.662a1.961,1.961,0,0,0-2.24-2.2,20.213,20.213,0,0,0-5.064,1.137,6.879,6.879,0,0,1-1.312-3.756q.83-.311,1.843-.587t2.087-.482q1.069-.207,2.1-.328a16.276,16.276,0,0,1,1.858-.121,7.891,7.891,0,0,1,2.328.345,5.6,5.6,0,0,1,1.964,1.051,4.992,4.992,0,0,1,1.343,1.827,6.508,6.508,0,0,1,.5,2.671v7A2.51,2.51,0,0,0,318.171,101.214Zm-10.408-2.585q0,1.621,1.863,1.62a3.582,3.582,0,0,0,2.169-1V96.492q-.687-.034-1.154-.052t-.707-.018A1.935,1.935,0,0,0,307.763,98.629Z" transform="translate(-195.533 -78.33)" fill="#f70000"/>
        <path id="Trazado_8" data-name="Trazado 8" d="M335.271,89.109a6.173,6.173,0,0,1,.655-1.534,4.144,4.144,0,0,1,.967-1.224,4.873,4.873,0,0,1,4.409,3.136,4.452,4.452,0,0,1,4.308-3.1,12.037,12.037,0,0,1,2.274.276,10.809,10.809,0,0,1-.36,2.533,9.07,9.07,0,0,1-.984,2.5,8.733,8.733,0,0,0-1.756-.345,3.258,3.258,0,0,0-2.827,1.758v10.718a15.018,15.018,0,0,1-2.672.208,15.608,15.608,0,0,1-2.7-.208V92.693Q336.582,90.109,335.271,89.109Z" transform="translate(-211.401 -78.46)" fill="#f70000"/>
        <path id="Trazado_9" data-name="Trazado 9" d="M375.47,89.547l.861,2.516a5.416,5.416,0,0,0,1.654,2.93,4.7,4.7,0,0,1-3.619,1.688,2.472,2.472,0,0,1-1.721-.535,4.454,4.454,0,0,1-1.034-1.877L370.574,91.3a3.025,3.025,0,0,0-.792-1.43,1.86,1.86,0,0,0-1.205-.362q-.76,0-1.067.035V96.4a16.633,16.633,0,0,1-5.241,0V71.281l.244-.241h2.067a2.968,2.968,0,0,1,2.274.723,3.762,3.762,0,0,1,.656,2.517V85.1h.551a1.065,1.065,0,0,0,.965-.62l1.79-3.447a3.182,3.182,0,0,1,3.032-1.964q1,0,3,.069l.206.276L374.4,84.549a5.467,5.467,0,0,1-1.757,2.034A4.549,4.549,0,0,1,375.47,89.547Z" transform="translate(-224.484 -71.04)" fill="#f70000"/>
        <path id="Trazado_10" data-name="Trazado 10" d="M407.055,96.74h-8.963a3.866,3.866,0,0,0,.789,2.387,2.941,2.941,0,0,0,2.369.853,9.156,9.156,0,0,0,1.9-.233,17.65,17.65,0,0,0,2.489-.766,5.5,5.5,0,0,1,1.408,3.171,11.35,11.35,0,0,1-6.754,1.963,8.519,8.519,0,0,1-3.637-.689,6.11,6.11,0,0,1-2.377-1.929,7.744,7.744,0,0,1-1.294-2.93,16.819,16.819,0,0,1-.379-3.688,13.046,13.046,0,0,1,.465-3.567,8.16,8.16,0,0,1,1.414-2.844,6.568,6.568,0,0,1,2.413-1.9,7.984,7.984,0,0,1,3.429-.689,7.716,7.716,0,0,1,2.981.551A6.437,6.437,0,0,1,407,90.26a8.339,8.339,0,0,1,.5,2.93A12.233,12.233,0,0,1,407.055,96.74Zm-9-3.721h4.515v-.38a3.65,3.65,0,0,0-.565-2.1,1.909,1.909,0,0,0-1.692-.827,1.834,1.834,0,0,0-1.625.775A5.184,5.184,0,0,0,398.057,93.018Z" transform="translate(-239.187 -78.233)" fill="#f70000"/>
        <path id="Trazado_11" data-name="Trazado 11" d="M435.808,81.96a9,9,0,0,1,.207,1.913,8.529,8.529,0,0,1-.207,1.878l-4.1-.069v7.927q0,1.62,1.516,1.619h1.932a6.875,6.875,0,0,1,.447,2.295,5.756,5.756,0,0,1-.137,1.495,34.972,34.972,0,0,1-4.688.346q-4.341,0-4.342-4.8V85.717l-2.687.034a6.8,6.8,0,0,1-.243-1.861,7.569,7.569,0,0,1,.243-1.93l2.687.069v-2a3.7,3.7,0,0,1,.671-2.5,2.935,2.935,0,0,1,2.257-.74h2.1l.242.241v5Z" transform="translate(-254.157 -73.827)" fill="#f70000"/>
      </g>
      <g id="Grupo_2" data-name="Grupo 2" transform="translate(94.94 104.832)">
        <path id="Trazado_12" data-name="Trazado 12" d="M95.89,140.715l.69-.012h2.566a2.433,2.433,0,0,1,.037.412,2.24,2.24,0,0,1-.037.4H96.58c-.293,0-.523,0-.69-.012v3.943a3.02,3.02,0,0,1-.95,0v-8.475l.074-.075h4.745a1.241,1.241,0,0,1,.063.4q0,.439-.589.439h-1.99c-.661,0-1.114-.009-1.366-.026l.013,1.753Z" transform="translate(-94.94 -136.744)"/>
        <path id="Trazado_13" data-name="Trazado 13" d="M127.136,144.728a4.692,4.692,0,0,1-1.327-3.693,6.967,6.967,0,0,1,.221-1.81,4.171,4.171,0,0,1,.643-1.4,2.934,2.934,0,0,1,1.058-.9,3.141,3.141,0,0,1,1.446-.321,3.038,3.038,0,0,1,1.5.357,3.128,3.128,0,0,1,1.058.964,4.283,4.283,0,0,1,.619,1.408,6.985,6.985,0,0,1,.2,1.691,7.1,7.1,0,0,1-.22,1.809,4.143,4.143,0,0,1-.646,1.4,2.905,2.905,0,0,1-1.058.9,3.185,3.185,0,0,1-1.457.319A2.925,2.925,0,0,1,127.136,144.728Zm-.213-4.975a4.4,4.4,0,0,0-.08.622c-.012.214-.018.429-.018.647a8.477,8.477,0,0,0,.088,1.2,4.18,4.18,0,0,0,.337,1.181,2.38,2.38,0,0,0,.714.9,1.936,1.936,0,0,0,1.215.359,1.995,1.995,0,0,0,1.513-.635,2.22,2.22,0,0,0,.421-.659,5.043,5.043,0,0,0,.25-.785,6.131,6.131,0,0,0,.132-.811c.024-.267.038-.519.038-.754a8.88,8.88,0,0,0-.089-1.194,4,4,0,0,0-.344-1.18,2.48,2.48,0,0,0-.713-.9,1.9,1.9,0,0,0-1.208-.358,2.075,2.075,0,0,0-.964.208,1.924,1.924,0,0,0-.657.54,2.6,2.6,0,0,0-.4.754A6.958,6.958,0,0,0,126.922,139.753Z" transform="translate(-109.899 -136.602)"/>
        <path id="Trazado_14" data-name="Trazado 14" d="M162.427,144.728a4.7,4.7,0,0,1-1.329-3.693,7.013,7.013,0,0,1,.221-1.81,4.193,4.193,0,0,1,.644-1.4,2.943,2.943,0,0,1,1.058-.9,3.144,3.144,0,0,1,1.445-.321,3.036,3.036,0,0,1,1.5.357,3.138,3.138,0,0,1,1.058.964,4.284,4.284,0,0,1,.62,1.408,7.416,7.416,0,0,1-.02,3.5,4.141,4.141,0,0,1-.643,1.4,2.928,2.928,0,0,1-1.06.9,3.183,3.183,0,0,1-1.458.319A2.927,2.927,0,0,1,162.427,144.728Zm-.215-4.975a4.4,4.4,0,0,0-.078.622c-.014.214-.02.429-.02.647a8.722,8.722,0,0,0,.089,1.2,4.18,4.18,0,0,0,.338,1.181,2.36,2.36,0,0,0,.714.9,1.926,1.926,0,0,0,1.213.359,2.047,2.047,0,0,0,.877-.177,2.071,2.071,0,0,0,.64-.458,2.2,2.2,0,0,0,.42-.659,4.944,4.944,0,0,0,.25-.785,6.288,6.288,0,0,0,.13-.811c.025-.267.039-.519.039-.754a8.552,8.552,0,0,0-.089-1.194,4,4,0,0,0-.344-1.18,2.459,2.459,0,0,0-.713-.9,1.9,1.9,0,0,0-1.209-.358,2.082,2.082,0,0,0-.963.208,1.934,1.934,0,0,0-.657.54,2.653,2.653,0,0,0-.4.754A7.149,7.149,0,0,0,162.211,139.753Z" transform="translate(-126.999 -136.602)"/>
        <path id="Trazado_15" data-name="Trazado 15" d="M202.131,144.822a1.9,1.9,0,0,1-.425.269,3.513,3.513,0,0,1-.534.2,4.416,4.416,0,0,1-.56.126,3.3,3.3,0,0,1-.5.044c-.15,0-.442-.005-.876-.013l-1.751-.038-.076-.075v-8.4l.076-.075c.725-.026,1.574-.037,2.541-.037a3.508,3.508,0,0,1,1.628.338,2.748,2.748,0,0,1,1.043.921,3.757,3.757,0,0,1,.56,1.376,8.5,8.5,0,0,1,.162,1.7,11.271,11.271,0,0,1-.056,1.157,4.734,4.734,0,0,1-.206.983,3.609,3.609,0,0,1-.4.833A3.142,3.142,0,0,1,202.131,144.822Zm-3.769-.162,1.654.012a2.217,2.217,0,0,0,1.177-.284,2.065,2.065,0,0,0,.732-.747,3.233,3.233,0,0,0,.376-1.042,6.486,6.486,0,0,0,.107-1.155,13.018,13.018,0,0,0-.088-1.546,3.472,3.472,0,0,0-.362-1.213,2,2,0,0,0-.764-.791,2.319,2.319,0,0,0-1.177-.283l-1.654-.012Z" transform="translate(-144.596 -136.71)"/>
        <path id="Trazado_16" data-name="Trazado 16" d="M244.088,144.515a1.034,1.034,0,0,1,.438-.764,4.485,4.485,0,0,0,2.5.864,2.323,2.323,0,0,0,1.4-.376,1.206,1.206,0,0,0,.515-1.027q0-.965-1.326-1.552l-1.468-.638a2.31,2.31,0,0,1-1.69-2.1,2.107,2.107,0,0,1,.2-.9,2.247,2.247,0,0,1,.558-.737,2.663,2.663,0,0,1,.859-.5,3.254,3.254,0,0,1,1.114-.181,5.751,5.751,0,0,1,2.477.6.98.98,0,0,1-.39.8,5.719,5.719,0,0,0-1.131-.451,3.722,3.722,0,0,0-.956-.138,2.153,2.153,0,0,0-.722.113,1.941,1.941,0,0,0-.549.293,1.306,1.306,0,0,0-.357.427,1.089,1.089,0,0,0-.124.507,1.14,1.14,0,0,0,.318.858,2.877,2.877,0,0,0,.9.544l1.411.613q1.869.816,1.866,2.267a2.246,2.246,0,0,1-.737,1.752,3.363,3.363,0,0,1-2.292.662A4.694,4.694,0,0,1,244.088,144.515Z" transform="translate(-167.215 -136.602)"/>
        <path id="Trazado_17" data-name="Trazado 17" d="M279.386,144.155l-.015.478c.285-.017.544-.026.777-.026h3.431a2.136,2.136,0,0,1-.027.4.536.536,0,0,1-.611.438H279a.5.5,0,0,1-.4-.169.688.688,0,0,1-.142-.457v-7.85l.075-.075h4.832a2.543,2.543,0,0,1,.026.394,1.411,1.411,0,0,1-.062.431h-3.958l.015.776v2.217l.749-.012h2.593a2.425,2.425,0,0,1,.036.412,2.234,2.234,0,0,1-.036.4h-2.593c-.316,0-.568,0-.749-.012Z" transform="translate(-183.87 -136.744)"/>
        <path id="Trazado_18" data-name="Trazado 18" d="M311.64,136.861l2.529-.037a2.866,2.866,0,0,1,2,.65,2.357,2.357,0,0,1,.714,1.83,2.409,2.409,0,0,1-.438,1.447,2.216,2.216,0,0,1-1.2.833,1.533,1.533,0,0,1,.841,1.013l.648,1.689a3.549,3.549,0,0,0,.276.57,1.29,1.29,0,0,0,.263.319.727.727,0,0,1-.662.312.573.573,0,0,1-.409-.137,1.415,1.415,0,0,1-.28-.488l-.729-1.9a2.4,2.4,0,0,0-.505-.858,1.181,1.181,0,0,0-.87-.293h-1.3v3.6a2.9,2.9,0,0,1-.489.038,2.363,2.363,0,0,1-.463-.038v-8.475Zm.877.738v3.417c.174-.008.39-.013.644-.018s.556-.006.907-.006a2.349,2.349,0,0,0,.87-.14,1.537,1.537,0,0,0,.557-.365,1.272,1.272,0,0,0,.3-.537,2.353,2.353,0,0,0,.089-.65,2.406,2.406,0,0,0-.089-.662,1.266,1.266,0,0,0-.3-.535,1.461,1.461,0,0,0-.568-.36,2.614,2.614,0,0,0-.9-.132h-.9C312.878,137.612,312.675,137.607,312.516,137.6Z" transform="translate(-199.913 -136.71)"/>
        <path id="Trazado_19" data-name="Trazado 19" d="M346.506,144.447l2.179-7.623a1.918,1.918,0,0,1,.411-.037,1.831,1.831,0,0,1,.44.049l.049.075-2.554,8.475c-.25.025-.477.038-.681.038a.909.909,0,0,1-.463-.095.7.7,0,0,1-.258-.406l-2.416-8.025a1.442,1.442,0,0,1,.6-.151.527.527,0,0,1,.524.464l1.492,5.045q.2.663.574,2.077C346.422,144.41,346.457,144.447,346.506,144.447Z" transform="translate(-215.249 -136.673)"/>
        <path id="Trazado_20" data-name="Trazado 20" d="M378.016,145.411v-8.55a2.214,2.214,0,0,1,.458-.037,2.822,2.822,0,0,1,.5.037v8.55a2.814,2.814,0,0,1-.5.038A2.206,2.206,0,0,1,378.016,145.411Z" transform="translate(-232.114 -136.71)"/>
        <path id="Trazado_21" data-name="Trazado 21" d="M408.44,139.456a2.7,2.7,0,0,0-.106-.748,1.838,1.838,0,0,0-.352-.667,1.745,1.745,0,0,0-.627-.472,2.182,2.182,0,0,0-.924-.177,1.843,1.843,0,0,0-1.652.941A5.086,5.086,0,0,0,404.2,141a4.951,4.951,0,0,0,.6,2.677,1.913,1.913,0,0,0,1.7.935,3.472,3.472,0,0,0,2.254-.99,1.151,1.151,0,0,1,.528.626,4.026,4.026,0,0,1-1.3.87,4.074,4.074,0,0,1-1.633.331,2.853,2.853,0,0,1-1.441-.344,2.785,2.785,0,0,1-.98-.946,4.373,4.373,0,0,1-.564-1.4,7.562,7.562,0,0,1-.181-1.7,6.893,6.893,0,0,1,.248-1.953,4.149,4.149,0,0,1,.69-1.4,2.846,2.846,0,0,1,2.29-1.122,3.548,3.548,0,0,1,1.227.2,3.107,3.107,0,0,1,.939.525,2.35,2.35,0,0,1,.6.75,1.951,1.951,0,0,1,.214.877c0,.375-.178.564-.531.564A1.7,1.7,0,0,1,408.44,139.456Z" transform="translate(-244.31 -136.602)"/>
        <path id="Trazado_22" data-name="Trazado 22" d="M439.131,144.155l-.011.478c.282-.017.542-.026.775-.026h3.431a2.362,2.362,0,0,1-.025.4.54.54,0,0,1-.613.438h-3.944a.5.5,0,0,1-.4-.169.7.7,0,0,1-.142-.457v-7.85l.076-.075h4.831a2.3,2.3,0,0,1,.026.394,1.348,1.348,0,0,1-.062.431H439.12l.011.776v2.217l.751-.012h2.593a2.55,2.55,0,0,1,.037.412,2.344,2.344,0,0,1-.037.4h-2.593c-.316,0-.568,0-.751-.012Z" transform="translate(-261.281 -136.744)"/>
      </g>
    </g>
  </g>
</svg>
